<svg width="20" height="21" viewBox="0 0 20 21" fill="none" xmlns="http://www.w3.org/2000/svg">
<path d="M10.0001 14C9.07183 14 8.18159 13.6313 7.52521 12.9749C6.86883 12.3185 6.50008 11.4283 6.50008 10.5C6.50008 9.57174 6.86883 8.6815 7.52521 8.02513C8.18159 7.36875 9.07183 7 10.0001 7C10.9283 7 11.8186 7.36875 12.475 8.02513C13.1313 8.6815 13.5001 9.57174 13.5001 10.5C13.5001 11.4283 13.1313 12.3185 12.475 12.9749C11.8186 13.6313 10.9283 14 10.0001 14ZM17.4301 11.47C17.4701 11.15 17.5001 10.83 17.5001 10.5C17.5001 10.17 17.4701 9.84 17.4301 9.5L19.5401 7.87C19.7301 7.72 19.7801 7.45 19.6601 7.23L17.6601 3.77C17.5401 3.55 17.2701 3.46 17.0501 3.55L14.5601 4.55C14.0401 4.16 13.5001 3.82 12.8701 3.57L12.5001 0.92C12.4601 0.68 12.2501 0.5 12.0001 0.5H8.00008C7.75008 0.5 7.54008 0.68 7.50008 0.92L7.13008 3.57C6.50008 3.82 5.96008 4.16 5.44008 4.55L2.95008 3.55C2.73008 3.46 2.46008 3.55 2.34008 3.77L0.340084 7.23C0.210084 7.45 0.270084 7.72 0.460084 7.87L2.57008 9.5C2.53008 9.84 2.50008 10.17 2.50008 10.5C2.50008 10.83 2.53008 11.15 2.57008 11.47L0.460084 13.13C0.270084 13.28 0.210084 13.55 0.340084 13.77L2.34008 17.23C2.46008 17.45 2.73008 17.53 2.95008 17.45L5.44008 16.44C5.96008 16.84 6.50008 17.18 7.13008 17.43L7.50008 20.08C7.54008 20.32 7.75008 20.5 8.00008 20.5H12.0001C12.2501 20.5 12.4601 20.32 12.5001 20.08L12.8701 17.43C13.5001 17.17 14.0401 16.84 14.5601 16.44L17.0501 17.45C17.2701 17.53 17.5401 17.45 17.6601 17.23L19.6601 13.77C19.7801 13.55 19.7301 13.28 19.5401 13.13L17.4301 11.47Z" fill="white"/>
</svg>
