
<svg
  xmlns="http://www.w3.org/2000/svg"
  viewBox="0 0 24 24"
  width="64"
  height="64"
  role="img"
  aria-label="Cogwheel"
>
  <defs>
    <!-- Punch a hole in the middle -->
    <mask id="gear-hole" maskUnits="userSpaceOnUse">
      <rect x="0" y="0" width="24" height="24" fill="#fff"/>
      <circle cx="12" cy="12" r="3.25" fill="#000"/>
    </mask>
    <style>
      /* Change the color by setting color or --gear-color on the SVG or a parent */
      svg { color: inherit; }
    </style>
  </defs>


  <g fill="var(--gear-color, currentColor)" mask="url(#gear-hole)">
    <!-- Teeth (12) -->
    <rect x="11" y="1"  width="2" height="4" rx="1" transform="rotate(0 12 12)"/>
    <rect x="11" y="1"  width="2" height="4" rx="1" transform="rotate(30 12 12)"/>
    <rect x="11" y="1"  width="2" height="4" rx="1" transform="rotate(60 12 12)"/>
    <rect x="11" y="1"  width="2" height="4" rx="1" transform="rotate(90 12 12)"/>
    <rect x="11" y="1"  width="2" height="4" rx="1" transform="rotate(120 12 12)"/>
    <rect x="11" y="1"  width="2" height="4" rx="1" transform="rotate(150 12 12)"/>
    <rect x="11" y="1"  width="2" height="4" rx="1" transform="rotate(180 12 12)"/>
    <rect x="11" y="1"  width="2" height="4" rx="1" transform="rotate(210 12 12)"/>
    <rect x="11" y="1"  width="2" height="4" rx="1" transform="rotate(240 12 12)"/>
    <rect x="11" y="1"  width="2" height="4" rx="1" transform="rotate(270 12 12)"/>
    <rect x="11" y="1"  width="2" height="4" rx="1" transform="rotate(300 12 12)"/>
    <rect x="11" y="1"  width="2" height="4" rx="1" transform="rotate(330 12 12)"/>

    <!-- Gear body -->
    <circle cx="12" cy="12" r="9"/>
  </g>
</svg>
